<?xml version="1.0" standalone="no"?>
<!DOCTYPE svg PUBLIC "-//W3C//DTD SVG 20010904//EN"
 "http://www.w3.org/TR/2001/REC-SVG-20010904/DTD/svg10.dtd">
<svg version="1.0" xmlns="http://www.w3.org/2000/svg"
 width="490.000000pt" height="218.000000pt" viewBox="0 0 490.000000 218.000000"
 preserveAspectRatio="xMidYMid meet">

<g transform="translate(0.000000,218.000000) scale(0.100000,-0.100000)"
fill="#000000" stroke="none">
<path d="M1580 2083 c-8 -2 -21 -6 -28 -9 -10 -3 -5 -16 17 -46 17 -23 31 -45
31 -50 0 -13 -56 -37 -118 -52 -63 -15 -91 -8 -139 36 -23 21 -54 21 -61 1 -2
-8 6 -13 20 -13 23 0 66 -24 80 -44 3 -5 26 -9 50 -8 43 2 83 15 234 78 44 19
96 36 115 40 l34 5 -23 -19 c-12 -11 -28 -22 -35 -25 -6 -2 -9 -8 -5 -12 4 -4
25 0 48 9 45 18 88 20 110 6 12 -7 12 -12 -4 -28 -25 -28 -105 -61 -157 -64
-35 -2 -50 -10 -73 -36 -56 -64 -191 -137 -239 -130 -15 2 -3 17 56 67 72 62
95 92 44 58 -23 -15 -65 -21 -121 -18 -28 1 -28 2 -13 19 26 29 21 33 -31 26
-45 -6 -51 -4 -71 21 -26 35 -39 27 -15 -10 13 -21 15 -31 6 -50 -14 -31 -2
-39 46 -30 39 8 123 7 132 -2 3 -3 -8 -15 -23 -26 -69 -54 -91 -76 -85 -83 12
-11 129 15 188 43 30 14 80 48 111 74 39 34 71 52 104 59 102 23 189 80 169
111 -14 24 -95 50 -147 48 -38 -1 -65 5 -102 24 -59 30 -85 37 -105 30z m76
-39 c24 -14 44 -28 44 -30 0 -2 -14 -11 -31 -19 -33 -18 -59 -14 -59 8 0 8 -7
20 -15 27 -20 16 -19 40 1 40 8 0 35 -12 60 -26z m-296 -204 c-26 -20 -50 -26
-50 -12 0 16 25 32 50 32 l25 0 -25 -20z"/>
<path d="M2334 1852 c-27 -26 -84 -78 -125 -115 -40 -38 -126 -121 -191 -184
l-116 -116 -65 41 c-35 22 -80 48 -98 56 -19 9 -61 32 -94 52 -87 52 -101 52
-159 7 -28 -21 -66 -53 -85 -70 -20 -18 -39 -33 -43 -33 -4 0 -17 -10 -30 -23
-13 -12 -39 -34 -58 -49 l-35 -27 105 5 c139 8 177 -1 201 -46 11 -19 19 -54
19 -79 l0 -44 38 6 c104 16 188 18 268 8 98 -13 234 -51 304 -84 41 -20 58
-22 203 -19 143 3 171 6 295 39 243 63 323 75 442 67 154 -12 254 -11 355 3
106 15 416 17 530 3 44 -5 107 -12 140 -15 l60 -6 -215 211 c-287 282 -346
333 -368 321 -10 -5 -69 -58 -130 -118 -62 -59 -129 -122 -150 -140 l-37 -31
-73 64 c-40 35 -77 64 -81 64 -5 0 -34 -24 -65 -52 -63 -60 -155 -132 -160
-127 -2 2 -27 36 -57 74 -79 103 -78 102 -160 184 -93 93 -269 220 -304 221
-5 0 -33 -22 -61 -48z m177 -85 c82 -43 156 -104 227 -187 69 -82 156 -181
205 -234 20 -22 37 -43 37 -46 0 -6 -105 -30 -133 -30 -10 0 -30 14 -45 31
-94 105 -136 148 -140 144 -3 -2 23 -42 57 -89 64 -88 71 -105 46 -107 -8 -1
-19 -2 -24 -3 -8 -1 -54 51 -96 108 -61 83 -98 116 -131 116 -18 0 -35 4 -38
8 -3 5 2 35 10 67 13 50 14 60 1 72 -11 11 -12 24 -6 51 4 21 4 54 0 75 -10
40 -6 43 30 24z m1094 -152 c16 -52 15 -59 -3 -113 -10 -31 -22 -57 -27 -57
-5 0 -19 20 -32 44 -13 25 -25 46 -27 48 -2 2 -21 -3 -41 -12 -21 -8 -40 -13
-42 -11 -7 7 131 155 144 156 7 0 20 -25 28 -55z m-1986 -70 c37 -22 67 -52
92 -91 15 -22 50 -58 78 -79 28 -22 51 -42 51 -45 0 -4 -11 -16 -24 -29 -21
-19 -32 -22 -102 -19 l-79 3 -7 45 c-11 76 -34 117 -68 125 -16 4 -32 10 -35
15 -3 4 5 31 16 59 20 46 23 49 41 38 11 -7 28 -16 37 -22z m1665 -122 c42
-40 76 -74 76 -77 0 -10 -58 -6 -87 5 -15 7 -39 12 -52 13 -21 1 -29 11 -49
64 -19 50 -22 66 -12 77 15 18 23 13 124 -82z m-1466 5 c18 -15 37 -28 42 -28
13 0 13 -27 0 -35 -18 -11 -129 85 -130 113 0 15 36 -6 88 -50z"/>
<path d="M657 1293 c-2 -5 -10 -39 -17 -78 -38 -211 -127 -515 -151 -515 -5 0
-9 7 -9 16 0 9 -11 53 -24 98 -28 93 -66 257 -66 283 0 28 -36 134 -42 127 -4
-3 -4 4 -1 17 11 40 -18 49 -154 49 -80 0 -123 -4 -123 -11 0 -5 -4 -8 -9 -4
-6 3 -8 -6 -5 -22 3 -16 9 -30 15 -31 5 -2 7 -7 4 -12 -9 -15 23 -137 80 -300
13 -36 44 -126 70 -200 25 -74 55 -155 65 -180 10 -25 28 -73 41 -107 l24 -63
116 0 c123 0 130 3 143 50 13 49 98 316 118 374 l21 58 14 -27 c8 -14 20 -55
28 -91 7 -35 23 -92 34 -127 11 -34 34 -102 49 -152 l29 -90 111 -3 c123 -3
118 -5 148 73 6 17 28 73 49 125 20 52 44 115 54 140 21 52 24 60 95 275 61
183 91 298 82 320 -4 12 -30 15 -144 15 l-138 0 -13 -90 c-7 -50 -24 -137 -37
-193 -14 -56 -31 -129 -39 -162 -8 -33 -23 -85 -34 -115 l-19 -55 -12 30 c-15
38 -115 436 -124 492 -3 23 -11 54 -18 68 -11 24 -14 25 -109 25 -54 0 -100
-3 -102 -7z m-477 -77 c0 -11 -19 -15 -25 -6 -3 5 1 10 9 10 9 0 16 -2 16 -4z"/>
<path d="M3775 1080 c-53 -8 -121 -52 -147 -96 -11 -18 -23 -32 -28 -29 -4 3
-11 25 -14 50 -12 78 -29 84 -186 64 -46 -5 -86 -12 -88 -14 -2 -2 1 -45 7
-97 6 -51 12 -202 13 -334 3 -209 5 -241 18 -237 10 3 10 0 -3 -10 -16 -13 -4
-15 117 -16 l136 -2 1 203 c1 112 4 214 8 228 4 14 22 33 43 44 33 18 40 19
94 6 33 -7 74 -20 92 -28 32 -14 35 -14 58 10 37 36 59 169 37 216 -8 18 -25
34 -37 37 -44 9 -82 10 -121 5z m-389 -370 c9 0 14 -10 14 -27 0 -20 -3 -24
-9 -14 -5 7 -14 10 -20 7 -7 -5 -11 4 -10 26 0 18 3 27 6 21 2 -7 11 -13 19
-13z m98 -105 c14 -22 14 -24 -2 -27 -14 -3 -13 -8 11 -29 23 -22 27 -35 27
-78 0 -50 1 -51 30 -51 30 0 30 1 32 58 1 52 2 53 5 13 6 -64 -3 -91 -30 -90
-12 0 -34 -3 -49 -7 -35 -8 -120 4 -113 17 4 5 1 9 -4 9 -12 0 -15 128 -5 167
3 12 17 24 30 27 13 4 24 11 24 16 0 16 28 0 44 -25z"/>
<path d="M1710 1073 c-14 -2 -53 -13 -87 -24 -110 -36 -168 -134 -110 -186 30
-28 51 -33 133 -35 l69 -1 51 52 c45 45 56 51 93 51 23 0 50 -4 60 -10 27 -14
44 -64 37 -104 -7 -38 -7 -38 -141 -51 -108 -11 -219 -37 -261 -61 -71 -42
-79 -56 -79 -144 0 -71 3 -82 31 -122 68 -96 201 -125 327 -72 34 15 77 39 95
56 l34 29 28 -39 c70 -97 265 -94 306 3 23 55 18 100 -10 113 -51 23 -55 43
-56 244 -1 143 -5 190 -16 205 -12 16 -15 16 -24 3 -8 -12 -10 -10 -8 10 2 18
-2 25 -14 24 -10 -1 -16 3 -15 10 1 6 -10 11 -25 11 -14 -1 -25 2 -23 6 6 9
-71 30 -88 23 -8 -3 -18 -1 -22 5 -6 11 -228 14 -285 4z m420 -63 c11 -8 7 -9
-15 -4 -37 8 -45 14 -19 14 10 0 26 -5 34 -10z m44 -13 c-3 -8 -12 -14 -21
-14 -13 0 -13 2 3 14 10 7 19 13 21 13 1 0 0 -6 -3 -13z m-10 -56 c4 -5 -1 -8
-9 -7 -21 3 -31 16 -12 16 9 0 18 -4 21 -9z m-210 -308 c-8 -87 -31 -114 -103
-121 -46 -4 -53 -2 -81 26 -35 36 -38 59 -9 96 33 42 84 63 162 65 l38 1 -7
-67z"/>
<path d="M4246 1068 c3 -5 -5 -7 -18 -5 -25 4 -122 -26 -113 -35 4 -3 -7 -10
-23 -16 -22 -8 -34 -22 -47 -56 -34 -89 4 -126 131 -126 l77 0 45 47 c42 45
48 48 108 53 l63 5 16 -40 c17 -47 11 -101 -14 -114 -9 -5 -59 -11 -111 -15
-122 -8 -239 -36 -289 -69 -48 -32 -86 -105 -77 -148 17 -87 66 -149 146 -186
100 -46 235 -21 327 60 22 20 38 27 40 20 9 -26 44 -61 77 -77 46 -22 140 -20
191 3 35 16 43 26 60 74 17 51 17 56 2 72 -9 9 -17 14 -17 11 0 -3 -9 3 -20
14 -18 18 -20 33 -20 190 0 113 -4 170 -11 170 -5 0 -8 4 -4 9 3 5 0 13 -6 17
-8 4 -9 3 -5 -4 4 -7 2 -12 -3 -12 -6 0 -11 -12 -11 -27 0 -19 -3 -24 -9 -15
-6 10 -10 9 -14 -7 -4 -16 -13 -21 -35 -21 -43 0 -49 17 -16 51 31 33 67 40
57 12 -3 -10 -3 -15 1 -12 13 12 16 50 3 43 -7 -4 -4 1 5 11 12 13 14 23 7 39
-11 23 -61 53 -53 31 3 -7 -5 -15 -16 -18 -23 -6 -19 -27 6 -27 20 0 18 -10
-7 -31 -21 -18 -37 -16 -76 8 -14 10 -23 11 -28 4 -8 -13 -45 -15 -45 -2 0 5
11 13 25 18 15 5 22 12 17 20 -6 9 -16 9 -45 0 -20 -7 -37 -16 -37 -21 0 -4
-6 -4 -13 2 -14 12 -41 1 -35 -14 1 -5 -14 -9 -34 -10 -21 -1 -35 2 -33 7 3 4
2 9 -2 12 -5 2 -2 2 5 0 61 -15 59 -15 58 8 0 12 -8 24 -16 26 -12 4 -13 3 -1
-5 10 -7 -1 -11 -38 -13 -28 -2 -51 -1 -51 3 0 3 -8 8 -17 10 -13 2 -18 13
-18 41 0 20 3 37 8 37 7 0 11 -16 8 -33 -1 -4 8 -3 20 4 18 9 21 9 17 -3 -4
-8 1 -15 11 -16 9 -1 25 -3 35 -4 10 -2 21 2 23 7 2 6 -9 12 -24 13 -16 1 -29
7 -31 12 -2 6 -12 10 -22 10 -10 0 -22 5 -25 10 -4 6 -19 9 -35 8 -16 -1 -26
-6 -24 -10z m19 -8 c-3 -5 -1 -10 4 -10 6 0 11 -7 11 -16 0 -8 -4 -13 -9 -9
-5 3 -12 1 -16 -4 -3 -6 -12 -7 -21 -4 -13 5 -11 9 7 29 23 25 35 31 24 14z
m255 -155 c-7 -8 -16 -15 -21 -15 -5 0 -9 7 -9 15 0 9 9 15 21 15 18 0 19 -2
9 -15z m54 -6 c20 3 26 -1 26 -14 0 -10 -10 -15 -30 -15 -26 0 -29 3 -26 23 3
12 5 24 5 27 1 3 5 -1 10 -8 4 -8 11 -13 15 -13z m101 11 c-3 -5 -12 -10 -18
-10 -7 0 -6 4 3 10 19 12 23 12 15 0z m-35 -4 c0 -3 -4 -8 -10 -11 -5 -3 -10
-1 -10 4 0 6 5 11 10 11 6 0 10 -2 10 -4z m101 -79 c-1 -4 -1 -17 -2 -29 0
-22 -1 -22 -9 -3 -12 28 -12 47 1 43 6 -2 10 -7 10 -11z m26 -19 c-3 -7 -5 -2
-5 12 0 14 2 19 5 13 2 -7 2 -19 0 -25z m-47 -23 c0 -13 -4 -14 -20 -5 -11 6
-20 13 -20 15 0 3 9 5 20 5 11 0 20 -7 20 -15z m-225 -147 c-4 -35 -11 -71
-16 -80 -28 -52 -145 -63 -182 -17 -24 30 -17 87 15 111 34 26 97 46 146 47
l44 1 -7 -62z"/>
<path d="M4442 1073 c30 -3 48 -9 52 -20 5 -12 1 -14 -19 -11 -20 4 -25 1 -25
-14 0 -15 4 -17 16 -10 9 5 25 7 34 5 10 -3 21 0 24 6 8 12 33 2 67 -27 18
-16 18 -17 2 -24 -13 -5 -9 -7 13 -7 24 -1 33 5 42 25 7 14 8 23 3 19 -5 -3
-12 -1 -16 5 -3 5 -1 10 6 10 12 0 3 15 -9 15 -4 0 -13 4 -20 9 -7 4 -16 5
-19 2 -3 -3 -12 -1 -19 5 -7 6 -50 12 -96 13 -46 2 -62 1 -36 -1z"/>
<path d="M2309 1053 c6 -10 33 -67 61 -128 28 -60 54 -117 59 -125 5 -9 52
-101 106 -205 53 -105 106 -204 117 -222 l19 -32 -26 -41 c-35 -56 -80 -74
-161 -66 l-62 6 -9 -82 c-8 -82 -8 -83 17 -98 40 -24 193 -20 250 7 80 36 142
107 200 228 18 39 90 187 160 330 174 356 178 365 186 408 l6 37 -141 0 -140
0 -27 -87 c-26 -88 -66 -204 -101 -297 -10 -27 -23 -51 -29 -53 -6 -2 -18 16
-27 39 -8 24 -38 102 -67 173 -28 72 -57 146 -63 165 -19 61 -16 60 -183 60
-144 0 -154 -1 -145 -17z"/>
<path d="M4420 1029 c0 -5 5 -7 10 -4 6 3 10 8 10 11 0 2 -4 4 -10 4 -5 0 -10
-5 -10 -11z"/>
</g>
</svg>
